<svg id="Layer_1" data-name="Layer 1" xmlns="http://www.w3.org/2000/svg" viewBox="0 0 141.63 18.89"><path d="M5.45,6.75H5.11c-.24.62-.85.51-1.66.41,0,.18.11.35-.16.47-1.28-.24-.63.06-1.49.5.27,0,.62-.1.77.07L.86,8.54c.27.32.5.69.24,1,.24.68-.25,1.57-.39,2.33a2.48,2.48,0,0,1,.7.22c0,.3-.3.46-.66.55l.14.21-.14-.21a3.82,3.82,0,0,1-.75.08c.15.08.3.16.24.3l1-.1v.18l.25-.2-.22-.16c-.08-.13,0-.24.18-.34s.35.06.49.14l.53-.37c.15-.56-1.48-.18-.63-.76l.29.11c.4-.17,1-.23,1.19-.61.48.59,1.13-.61,1.28.24,1.62.27,3.63-.6,5.3.17.22-.61.12-1.74.75-2.52.15.08.37.15.31.3l.45-.36c-.27,0-.61.1-.77-.12.74-.33-.39-.47-.35-.79l1-.4-.13-.12c-1.87,0-3.78-.42-5.67-.55Z" transform="translate(0 0)"/><path d="M37.88,15l-.07-.68c7.83-1.39,17.11-1.55,26.84-1.49s19.91.44,29.61.29l-.46,2.54c5.17-1.6,11.07-2.38,16-4.12l-1.88-.47c1.77-1.42,6.25-2.14,9-1.7l-.3.65c-3.77.22.24.22-1.34,2l-.67.31.37.34.66-.31c-.09.38,0,.87-.66,1l.85.1c1.78,1.88,1.71,3.43,1.39,5.43.49-.23.08-2.23,2.1-1.49L119,18l2.3-1.08,1,.92c.81-.36,1.35-.76,2.15-.44l.33-1.32a26.78,26.78,0,0,0,6,.22,15.3,15.3,0,0,1,5.93.77c1-1.18,2.71.74,4.9-.1l-.69-1.52c-1-1.08-2.83-1.52-4.87-1.83L133,13.24a25.4,25.4,0,0,1-3-.51l.21-.75c.79-.17,1.41-.76,2.33-.32l.37-1.3c-1.22-4.81-6.77.51-8-.28-2.77-1.5,2.06-2.71.68-2.63,3.3-1.53-2.42-3.52-3.71-5.13C120,.69,117,.18,113.83.06s-6.49.28-9,.26a22.24,22.24,0,0,1-6.65,1.3,46.25,46.25,0,0,1-7.06-.15C86.38,1,81.72.36,77.9.47c-3.68-.33-9.37,5-11.85.86Q62.61,1,59.18.77L59.29,0C52.62,0,45.38,2.27,39.23,3.21c-2.69.34-3.38,2.36-4.74.31-5.47-1-11.6,2.28-16.79,3,.07.67-.6,1.44.39,1.73,2.61-1,5.82.41,6,2.25l-1-.11L25,11.76l1.1-.66a2.4,2.4,0,0,1,.53,1.07c2,.51,3.82,2,5.92,3A7.17,7.17,0,0,1,37.88,15Z" transform="translate(0 0)"/></svg>