<svg width="120" height="120" viewBox="0 0 120 120" fill="none" xmlns="http://www.w3.org/2000/svg">
<path d="M60 120C93.1371 120 120 93.1371 120 60C120 26.8629 93.1371 0 60 0C26.8629 0 0 26.8629 0 60C0 93.1371 26.8629 120 60 120Z" fill="#F05A28"/>
<path d="M60 4.45569C74.8354 4.45569 88.7595 10.2278 99.2911 20.7089C109.772 31.1899 115.544 45.1646 115.544 60C115.544 74.8354 109.772 88.7595 99.2911 99.2911C88.8101 109.823 74.8354 115.544 60 115.544C45.1645 115.544 31.2405 109.772 20.7088 99.2911C10.2278 88.8101 4.45569 74.8354 4.45569 60C4.45569 45.1646 10.2278 31.2405 20.7088 20.7089C31.2405 10.2278 45.1645 4.45569 60 4.45569ZM60 3.03797C28.5569 3.03797 3.03796 28.557 3.03796 60C3.03796 91.443 28.5569 116.962 60 116.962C91.443 116.962 116.962 91.443 116.962 60C116.962 28.557 91.443 3.03797 60 3.03797Z" fill="white"/>
<path d="M22.4 51.7367V32.8H28.2734V35.0785H24.8304V40.6987H28.0709V42.9772H24.8304V51.7367H22.4Z" fill="white"/>
<path d="M30.6025 51.7367V39.1797H32.8304V42.5722H32.881C33.3367 41.0532 33.6911 40.0911 33.9949 39.6354C34.2987 39.1797 34.7038 38.9772 35.2101 38.9772C35.6152 38.9772 35.9696 39.0785 36.3241 39.3316L36.1722 41.6101C35.8684 41.4076 35.5646 41.3063 35.2101 41.3063C34.5013 41.3063 33.9443 41.9139 33.4886 43.1797C33.0329 44.4456 32.8304 45.6101 32.8304 46.7747V51.7367H30.6025Z" fill="white"/>
<path d="M41.1342 52.0911C39.919 52.0911 38.957 51.4835 38.2481 50.319C37.5392 49.1544 37.1848 47.5342 37.1848 45.4582C37.1848 43.3823 37.5392 41.762 38.2481 40.5975C38.957 39.4329 39.919 38.8253 41.1342 38.8253C42.3494 38.8253 43.3114 39.4329 44.0203 40.5975C44.7291 41.762 45.0835 43.3823 45.0835 45.4582C45.0835 47.5342 44.7291 49.1544 44.0203 50.319C43.2608 51.4835 42.3494 52.0911 41.1342 52.0911ZM41.0835 40.9519C39.9696 40.9519 39.4633 42.4709 39.4633 45.4582C39.4633 48.4456 40.0203 49.9646 41.1342 49.9646C42.2481 49.9646 42.7544 48.4456 42.7544 45.4582C42.8051 42.4202 42.2481 40.9519 41.0835 40.9519Z" fill="white"/>
<path d="M47.3621 51.7367V39.1797H49.5899V40.5468H49.6405C50.2481 39.4835 51.0583 38.9772 51.9697 38.9772C52.7798 38.9772 53.4886 39.281 53.995 39.9392C54.5013 40.5975 54.7545 41.5089 54.7545 42.6734V51.7367H52.5266V42.724C52.5266 41.5089 52.1215 40.9013 51.3114 40.9013C50.8557 40.9013 50.4507 41.1544 50.0962 41.6101C49.7418 42.0658 49.5393 42.319 49.5393 42.4203V51.7367H47.3621Z" fill="white"/>
<path d="M62.1975 49.6101V51.5848C61.438 51.8886 60.7797 52.0911 60.2228 52.0911C58.6532 52.0911 57.8937 51.1797 57.8937 49.3063V41.1038H56.476V40.9013C57.5392 39.6354 58.7038 37.9646 59.919 35.9392H60.1215V39.1797H62.1975V41.1038H60.1215V48.243C60.1215 48.9013 60.1722 49.357 60.324 49.6101C60.4253 49.8633 60.6785 49.9646 61.0329 49.9646C61.3367 49.9646 61.7418 49.8633 62.1975 49.6101Z" fill="white"/>
<path d="M63.3621 46.5722V44.1924H68.476V46.5722H63.3621Z" fill="white"/>
<path d="M76.9317 48.8V50.9772C76.1722 51.7367 75.2608 52.0911 74.3495 52.0911C73.0836 52.0911 72.071 51.5342 71.3621 50.3696C70.6533 49.2051 70.2988 47.5848 70.2988 45.4582C70.2988 43.3823 70.6026 41.762 71.2102 40.5975C71.8178 39.4329 72.6786 38.8759 73.7925 38.8759C76.071 38.8759 77.1849 41.2557 77.1343 46.0152H72.476C72.476 48.7494 73.2355 50.1165 74.7039 50.1165C75.5646 50.0152 76.2735 49.6101 76.9317 48.8ZM72.5267 44.2937H74.9571C74.9571 41.9646 74.552 40.8 73.6912 40.8C72.8811 40.7494 72.5267 41.9139 72.5267 44.2937Z" fill="white"/>
<path d="M79.6152 51.7367V39.1797H81.8431V40.5468H81.8937C82.5013 39.4835 83.3114 38.9772 84.2228 38.9772C85.033 38.9772 85.7418 39.281 86.2481 39.9392C86.7545 40.5975 87.0076 41.5089 87.0076 42.6734V51.7367H84.7798V42.724C84.7798 41.5089 84.3747 40.9013 83.5646 40.9013C83.1089 40.9013 82.7038 41.1544 82.3494 41.6101C81.995 42.0658 81.7924 42.319 81.7924 42.4203V51.7367H79.6152Z" fill="white"/>
<path d="M96.9822 51.7367H94.7544V50.7747H94.7038C94.1974 51.5342 93.4886 51.9392 92.6784 51.9392C91.6658 51.9392 90.8557 51.3823 90.1468 50.2177C89.438 49.0532 89.1342 47.4835 89.1342 45.5089C89.1342 43.5342 89.4886 41.9139 90.1468 40.6987C90.805 39.4835 91.7164 38.8253 92.7797 38.8253C93.5392 38.8253 94.1974 39.1797 94.7544 39.838V32.8H96.9822V51.7367ZM94.7544 48.4962V42.1671C94.4506 41.357 93.9949 40.9013 93.3367 40.9013C92.7291 40.9013 92.2734 41.3063 91.919 42.1165C91.5645 42.9266 91.4126 44.0405 91.4126 45.5089C91.4126 48.2937 92.0202 49.6608 93.1848 49.6608C93.6405 49.6608 93.9949 49.5089 94.2987 49.1544C94.6025 48.8 94.7544 48.5975 94.7544 48.4962Z" fill="white"/>
<path d="M22.6025 58.0658H24.6279C27.0076 58.0658 28.881 58.7747 30.1975 60.1418C31.5139 61.5089 32.1722 63.4329 32.1722 65.9139C32.1722 67.3316 31.919 68.5468 31.362 69.6101C30.957 70.3696 30.4 71.1291 29.5899 71.838C30.1975 72.4962 30.6025 73.1038 30.9063 73.6608C31.4633 74.876 31.919 76.4456 32.2734 78.3696C32.6279 80.2937 32.881 82.9266 33.1342 86.2684H29.2861C29.1342 82.0658 28.7291 78.9772 28.1215 77.0025C27.6658 75.5342 27.0582 74.4709 26.3494 73.8633V86.2684H22.6025V58.0658ZM26.7038 62.1165V70.2177C27.3114 69.9646 27.8177 69.4582 28.1722 68.7494C28.5266 68.0405 28.6785 67.1797 28.6785 66.1671C28.6785 65.1038 28.5266 64.243 28.1722 63.5342C27.8177 62.876 27.3114 62.3696 26.7038 62.1165Z" fill="white"/>
<path d="M38.6025 58.0658H42.4V78.6228C42.4 80.3443 42.7038 81.5089 43.362 82.0658C43.919 81.3063 44.1722 80.2937 44.1722 78.9266V58.0152H48.0203V78.5722C48.0203 81.1544 47.4633 83.2304 46.2987 84.7494C45.438 85.9139 44.476 86.4709 43.362 86.4709C42.6025 86.4709 41.843 86.1671 41.0836 85.6101C40.3241 85.0025 39.7671 84.1924 39.362 83.0785C38.8557 81.5595 38.6025 80.0911 38.6025 78.6228V58.0658Z" fill="white"/>
<path d="M54.957 58.0658H58.7545V82.5215H60.9824V86.2684H54.957V58.0658Z" fill="white"/>
<path d="M67.3621 58.0658H73.8431V61.8127H71.1595V70.7241H73.8431V74.3696H71.1595V82.5722H73.8431V86.2684H67.3621V58.0658Z" fill="white"/>
<path d="M79.6152 82.1671C80.2228 82.4203 80.7292 82.5722 81.2355 82.5722C81.8937 82.5722 82.4507 82.3696 82.8557 81.9139C83.2608 81.4582 83.4633 80.8506 83.4633 79.9899C83.4633 79.3317 83.4127 78.6734 83.2608 78.0152C82.957 76.8 82.4507 75.1798 81.6912 73.2051C80.9317 71.2304 80.3241 69.4582 79.9697 67.838C79.7671 66.9266 79.6659 65.9139 79.6659 64.8C79.6659 62.3696 80.1216 60.5975 81.0836 59.4836C82.0456 58.3696 83.2608 57.8127 84.7798 57.8127C85.4887 57.8127 86.2988 57.9646 87.2102 58.2684V62.0152C86.7038 61.762 86.1975 61.6101 85.7418 61.6101C85.0836 61.6101 84.5266 61.8633 84.1216 62.4203C83.6659 62.9266 83.4633 63.7367 83.4633 64.7494C83.4633 65.4076 83.514 66.0658 83.6659 66.7241C83.9697 67.9392 84.4254 69.4582 85.1342 71.2304C85.995 73.4582 86.6026 75.4836 87.0076 77.2557C87.2102 78.1671 87.3114 79.1291 87.3114 80.1418C87.3114 82.1671 86.8051 83.7367 85.8431 84.8C84.8811 85.8633 83.6152 86.4203 82.1469 86.4203C81.4887 86.4203 80.6785 86.2684 79.7165 85.9646V82.1671H79.6152Z" fill="white"/>
<path d="M95.1596 82.319C95.7165 82.319 96.2228 82.5215 96.6279 82.9266C97.033 83.3316 97.2355 83.838 97.2355 84.3949C97.2355 84.9519 97.033 85.4582 96.6279 85.8633C96.2228 86.2684 95.7672 86.4709 95.1596 86.4709C94.6026 86.4709 94.0963 86.2684 93.6912 85.8633C93.2861 85.4582 93.0836 84.9519 93.0836 84.3949C93.0836 83.838 93.2861 83.3316 93.6912 82.9266C94.0963 82.5215 94.6026 82.319 95.1596 82.319ZM94.6532 77.8633L93.3874 66.9266C93.2355 65.4582 93.1849 64.1924 93.1849 63.1291C93.1849 61.0025 93.438 59.4835 93.9444 58.6734C94.2482 58.1671 94.6532 57.9139 95.1596 57.9139C95.6659 57.9139 96.0709 58.1671 96.3747 58.6734C96.8811 59.4329 97.1342 60.8506 97.1342 62.8253C97.1342 64.8506 96.8304 68.1924 96.2735 72.8506C96.0203 74.8759 95.8178 76.5468 95.7165 77.8633H94.6532Z" fill="white"/>
</svg>
